<?xml version="1.0" encoding="utf-8"?>
<!-- Generator: Adobe Illustrator 15.0.0, SVG Export Plug-In  -->
<!DOCTYPE svg PUBLIC "-//W3C//DTD SVG 1.1//EN" "http://www.w3.org/Graphics/SVG/1.1/DTD/svg11.dtd" [
	<!ENTITY ns_flows "http://ns.adobe.com/Flows/1.0/">
]>
<svg version="1.1"
	 xmlns="http://www.w3.org/2000/svg" xmlns:xlink="http://www.w3.org/1999/xlink" xmlns:a="http://ns.adobe.com/AdobeSVGViewerExtensions/3.0/"
	 x="0px" y="0px" width="204px" height="76px" viewBox="-1.094 -1.149 204 76"
	 overflow="visible" enable-background="new -1.094 -1.149 204 76" xml:space="preserve">
<defs>
</defs>
<path d="M46.102,22.838C48.84,5.27,32.66,0.633,32.66,0.633C16.683-2.893-4.37,8.532,0.796,29.666
	c2.23,14.628,13.332,31.644,9.933,41.804c-0.949,3.489,3.192,1.854,4.314,1.15c6.293-3.845,5.583-10.13,2.947-17.326
	C28.586,52.314,43.365,40.406,46.102,22.838 M15.521,47.599c-1.212-3.489-8.669-19.45-2.158-30.713
	c11.466-16.33,33.335-2.076,19.41,16.988C29.496,38.3,24.958,44.258,15.521,47.599"/>
<path d="M96.886,69.486c18.992,0.896,10.432-32.729,21.256-38.544c1.861-0.843,1.732-2.67-0.056-2.636
	c-19.806-0.567-8.374,32.646-22.845,38.187C93.522,67.327,93.614,69.305,96.886,69.486"/>
<path d="M194.52,38.282c2.306-6.582-3.472-10.539-3.472-10.539c-5.987-4.428-12.549-5.205-15.264,4.844
	c-8.581,26.976-19.762,25.887-26.293,20.671c21.008-7.738,24.917-29.862,10.441-29.862c-12.923,0-23.853,13.79-18.091,28.042
	c-4.377,1.711-14.818,3.727-19.634,1.997c27.771-9.329,16.33-45.582-21.272-25.136c-5.884-11.043-26.642-2.638-27.192,17.749
	c-0.047,1.417-3.239,8.617-7.065,8.617c-7.102,0.158-1.467-11.252,0.841-17.833c2.308-6.583-3.472-10.539-3.472-10.539
	c-5.986-4.428-11.002-4.147-15.268,5.013C38.335,54.158,24.618,57.658,24.618,57.658c-1.916,0.695-0.873,2.401,0.654,3.057
	c11.506,4.071,22.329-8.704,27.061-23.759c1.825-6.102,4.479-6.75,7.27-5.033c3.803,2.334-0.668,7.448-2.492,13.672
	c-2.761,10.089,1.34,14.375,7.203,14.375c7.53,0,10.312-8.169,10.312-8.169c6.393,20.62,34.145-1.173,27.468-20.824
	c29.9-15.781,32.952,13.278,16.783,19.935c-2.395-1.973-4.39-0.864-4.805,0.277c-0.675,1.555,0.179,4.217,4.823,4.142
	c9.525,4.335,22.604,1.029,24.947,0.095c4.921,7,28.368,15.431,36.188-17.019c1.638-6.187,4.187-6.224,6.976-4.507
	c3.756,2.414-0.373,6.922-2.198,13.146c-4.591,12.984,9.817,20.552,16.309,11.44c1.396-2.648-0.33-2.688-1.666-2.626
	C193.027,56.08,187.827,55.855,194.52,38.282 M82.953,52.74c-8.335-5.93,4.098-28.579,11.529-22.891
	c-4.01,2.449-1.512,6.801,2.183,4.738C98.966,40.53,89.705,57.164,82.953,52.74 M158.39,30.111
	c7.186,1.461-1.851,14.714-10.741,18.705C144.94,41.464,150.661,28.844,158.39,30.111"/>
</svg>
