<?xml version="1.0" encoding="utf-8"?>
<!-- Generator: Adobe Illustrator 15.0.0, SVG Export Plug-In . SVG Version: 6.00 Build 0)  -->
<!DOCTYPE svg PUBLIC "-//W3C//DTD SVG 1.1//EN" "http://www.w3.org/Graphics/SVG/1.1/DTD/svg11.dtd">
<svg version="1.1" id="Layer_1" xmlns:sketch="http://www.bohemiancoding.com/sketch/ns"
	 xmlns="http://www.w3.org/2000/svg" xmlns:xlink="http://www.w3.org/1999/xlink" x="0px" y="0px" width="495.5px" height="94.5px"
	 viewBox="-1.5 -69 495.5 94.5" enable-background="new -1.5 -69 495.5 94.5" xml:space="preserve">
<title>workshop-bw</title>
<description>Created with Sketch (http://www.bohemiancoding.com/sketch)</description>
<g id="Page-1" sketch:type="MSPage">
	<g id="Group" sketch:type="MSLayerGroup">
		<path id="Rectangle-21" sketch:type="MSShapeGroup" fill="#1C1F22" d="M49.108-55.338v18.906c0,6.27,5.056,11.323,11.354,11.323
			h11.289c6.266,0,11.354-5.07,11.354-11.323v-18.906c0-6.27-5.056-11.324-11.354-11.324H60.463
			C54.197-66.662,49.108-61.591,49.108-55.338z M71.752-59.106c2.126,0,3.799,1.671,3.799,3.769v18.906
			c0,2.075-1.7,3.768-3.799,3.768H60.463c-2.126,0-3.799-1.671-3.799-3.768v-18.906c0-2.075,1.701-3.769,3.799-3.769H71.752z"/>
		<ellipse id="Oval-1" sketch:type="MSShapeGroup" fill="#E1E1E1" cx="52.886" cy="7.001" rx="52.886" ry="16.999">
		</ellipse>
		<rect id="Rectangle-1" x="30.221" y="-43.996" sketch:type="MSShapeGroup" fill="#BABABA" width="71.773" height="52.886">
		</rect>
		<circle id="Oval-2" sketch:type="MSShapeGroup" fill="#989898" cx="52.886" cy="-28.886" r="7.555">
		</circle>
		<path id="Workshop" sketch:type="MSShapeGroup" fill="#1C1F22" d="M202.853,5.112l14.448-50.719h-12.092l-8.896,36.652
			l-9.58-36.652h-8.44l-9.658,36.652l-8.896-36.652h-12.091l14.524,50.719h11.481l8.82-34.826l8.896,34.826H202.853z M236.156,6.027
			c12.167,0,19.468-8.898,19.468-19.315c0-10.418-7.301-19.238-19.468-19.238c-12.088,0-19.389,8.82-19.389,19.238
			C216.768-2.871,224.068,6.027,236.156,6.027z M236.156-2.568c-6.005,0-9.352-4.943-9.352-10.72c0-5.704,3.347-10.647,9.352-10.647
			c6.084,0,9.43,4.943,9.43,10.647C245.586-7.512,242.24-2.568,236.156-2.568z M272.505,5.112v-24.255
			c1.597-2.357,5.854-4.184,9.049-4.184c1.14,0,1.978,0.076,2.66,0.229v-9.429c-4.563,0-9.05,2.662-11.709,5.854v-4.942h-9.658
			V5.112H272.505z M326.11,5.112l-14.978-20.076l14.52-16.651h-11.86l-13.915,16.348v-30.34h-9.654V5.112h9.654v-9.429l4.409-4.715
			l9.735,14.144H326.11z M344.208,6.027c10.189,0,15.967-4.943,15.967-11.712c0-14.828-21.821-10.267-21.821-15.664
			c0-2.053,2.284-3.575,5.781-3.575c4.485,0,8.665,1.978,10.871,4.259l3.877-6.843c-3.648-2.891-8.592-5.019-14.748-5.019
			c-9.735,0-15.059,5.399-15.059,11.558c0,14.446,21.75,9.503,21.75,15.512c0,2.28-1.977,3.877-6.16,3.877
			c-4.563,0-9.961-2.509-12.698-5.095l-4.183,6.998C331.662,3.895,337.819,6.027,344.208,6.027z M401.771,5.112v-26.082
			c0-7.147-3.881-11.558-11.938-11.558c-6.009,0-10.495,2.888-12.853,5.627v-18.707h-9.731V5.112h9.731v-24.789
			c1.598-2.128,4.56-4.259,8.363-4.259c4.105,0,6.77,1.598,6.77,6.692V5.112H401.771z M428.385,6.027
			c12.166,0,19.463-8.898,19.463-19.315c0-10.418-7.297-19.238-19.463-19.238c-12.093,0-19.39,8.82-19.39,19.238
			C408.995-2.871,416.292,6.027,428.385,6.027z M428.385-2.568c-6.006,0-9.355-4.943-9.355-10.72c0-5.704,3.35-10.647,9.355-10.647
			c6.079,0,9.429,4.943,9.429,10.647C437.813-7.512,434.464-2.568,428.385-2.568z M476.062,6.027
			c9.429,0,16.269-7.076,16.269-19.315c0-12.242-6.84-19.238-16.269-19.238c-4.486,0-8.518,1.977-11.333,5.55v-4.638h-9.657v50.715
			h9.657V0.397C467.772,4.197,471.724,6.027,476.062,6.027z M473.019-2.568c-3.118,0-6.692-1.9-8.29-4.257v-12.926
			c1.675-2.435,5.172-4.184,8.29-4.184c5.552,0,9.352,4.335,9.352,10.647C482.37-6.899,478.57-2.568,473.019-2.568z"/>
		<path id="Rectangle-20" sketch:type="MSShapeGroup" fill="#1C1F22" d="M26.443-40.25V1.364c0,6.249,5.063,11.303,11.324,11.303
			h56.682c6.249,0,11.323-5.061,11.323-11.303V-40.25c0-6.247-5.062-11.301-11.323-11.301H37.767
			C31.517-51.551,26.443-46.49,26.443-40.25z M94.448-43.996c2.092,0,3.769,1.675,3.769,3.746V1.364
			c0,2.065-1.688,3.748-3.769,3.748H37.767c-2.092,0-3.769-1.675-3.769-3.748V-40.25c0-2.062,1.688-3.746,3.769-3.746H94.448z"/>
		<path id="Rectangle-22" sketch:type="MSShapeGroup" fill="#1C1F22" d="M65.604-4.383l18.474-3.925l-2.357-11.082l-18.474,3.925
			L65.604-4.383z M64.032-11.769l18.475-3.929l-4.48-2.911l2.357,11.085l2.909-4.482L64.818-8.076l4.48,2.911l-2.357-11.085
			L64.032-11.769z"/>
	</g>
</g>
</svg>
